# xmcd
#
# Track frame offsets: 
#        150
#        12747
#        27166
#        38885
#        51504
#        66495
#        84667
#        97899
#        113309
#        130635
#        144681
#        157922
#        178042
#
# Disc length: 2549 seconds
#
# Revision: 1
# Processed by: cddbd v1.5.2PL0 Copyright (c) Steve Scherf et al.
# Submitted via: ExactAudioCopyFreeDBPlugin 1.0
#
DISCID=aa09f30d
DTITLE=Karate Andi - Turbo
DYEAR=2016
DGENRE=Hip-Hop
TTITLE0=Gott sieht alles
TTITLE1=Eisen
TTITLE2=Eckkneipenhustler
TTITLE3=Mofa
TTITLE4=Kleid deiner Mutter
TTITLE5=Spiegel
TTITLE6=Gebrochener Knieboogie
TTITLE7=Flatrate
TTITLE8=Schwarzer Krauser
TTITLE9=Komm im Bimma
TTITLE10=Spiel des Lebens
TTITLE11=Lass mal bleiben
TTITLE12=Haram Cipher
EXTD=
EXTT0=
EXTT1=
EXTT2=
EXTT3=
EXTT4=
EXTT5=
EXTT6=
EXTT7=
EXTT8=
EXTT9=
EXTT10=
EXTT11=
EXTT12=
PLAYORDER=
